<mxfile host="Electron" modified="2025-08-28T12:06:07.751Z" agent="Mozilla/5.0 (Windows NT 10.0; Win64; x64) AppleWebKit/537.36 (KHTML, like Gecko) draw.io/22.1.21 Chrome/120.0.6099.109 Electron/28.1.0 Safari/537.36" version="22.1.21" etag="O8eWfmurMa4OgFFB56jo" type="device">
  <diagram name="Algoritmo Programa" id="f1u2s3">
    <mxGraphModel dx="54821" dy="27983" grid="1" gridSize="10" guides="1" tooltips="1" connect="1" arrows="1" fold="1" page="1" pageScale="1" pageWidth="827" pageHeight="1169" math="0" shadow="0">
      <root>
        <mxCell id="0" />
        <mxCell id="1" parent="0" />
        <mxCell id="inicio" value="ESCANEO QR" style="ellipse;whiteSpace=wrap;html=1;" parent="1" vertex="1">
          <mxGeometry x="240" y="20" width="120" height="60" as="geometry" />
        </mxCell>
        <mxCell id="obtenerId" value="OBTENER URL ?id=" style="rounded=1;whiteSpace=wrap;html=1;" parent="1" vertex="1">
          <mxGeometry x="210" y="120" width="180" height="60" as="geometry" />
        </mxCell>
        <mxCell id="inicio-obtenerId" parent="1" source="inicio" target="obtenerId" edge="1">
          <mxGeometry relative="1" as="geometry" />
        </mxCell>
        <mxCell id="condId" value="¿Existe ID?" style="rhombus;whiteSpace=wrap;html=1;" parent="1" vertex="1">
          <mxGeometry x="240" y="220" width="120" height="80" as="geometry" />
        </mxCell>
        <mxCell id="obtenerId-condId" parent="1" source="obtenerId" target="condId" edge="1">
          <mxGeometry relative="1" as="geometry" />
        </mxCell>
        <mxCell id="noId" value="Mostrar &#39;No ID provided&#39; y Fin" style="rounded=1;whiteSpace=wrap;html=1;fillColor=#ffe6e6;" parent="1" vertex="1">
          <mxGeometry y="340" width="180" height="60" as="geometry" />
        </mxCell>
        <mxCell id="condId-noId" value="No" parent="1" source="condId" target="noId" edge="1">
          <mxGeometry relative="1" as="geometry" />
        </mxCell>
        <mxCell id="loadJson" value="Llamar loadJSONForID(id)" style="rounded=1;whiteSpace=wrap;html=1;" parent="1" vertex="1">
          <mxGeometry x="220" y="340" width="160" height="60" as="geometry" />
        </mxCell>
        <mxCell id="condId-loadJson" value="Sí" parent="1" source="condId" target="loadJson" edge="1">
          <mxGeometry relative="1" as="geometry" />
        </mxCell>
        <mxCell id="condJson" value="¿Encontrado JSON?" style="rhombus;whiteSpace=wrap;html=1;" parent="1" vertex="1">
          <mxGeometry x="240" y="430" width="120" height="80" as="geometry" />
        </mxCell>
        <mxCell id="loadJson-condJson" parent="1" source="loadJson" target="condJson" edge="1">
          <mxGeometry relative="1" as="geometry" />
        </mxCell>
        <mxCell id="noJson" value="Mostrar &#39;ID not found&#39; y Fin" style="rounded=1;whiteSpace=wrap;html=1;fillColor=#ffe6e6;" parent="1" vertex="1">
          <mxGeometry x="10" y="550" width="180" height="60" as="geometry" />
        </mxCell>
        <mxCell id="condJson-noJson" value="No" parent="1" source="condJson" target="noJson" edge="1">
          <mxGeometry relative="1" as="geometry" />
        </mxCell>
        <mxCell id="tipoJson" value="Obtener {type, data}" style="rounded=1;whiteSpace=wrap;html=1;" parent="1" vertex="1">
          <mxGeometry x="220" y="550" width="160" height="60" as="geometry" />
        </mxCell>
        <mxCell id="condJson-tipoJson" value="Sí" parent="1" source="condJson" target="tipoJson" edge="1">
          <mxGeometry relative="1" as="geometry" />
        </mxCell>
        <mxCell id="condTipo" value="¿Tipo de JSON?" style="rhombus;whiteSpace=wrap;html=1;" parent="1" vertex="1">
          <mxGeometry x="240" y="630" width="120" height="80" as="geometry" />
        </mxCell>
        <mxCell id="tipoJson-condTipo" parent="1" source="tipoJson" target="condTipo" edge="1">
          <mxGeometry relative="1" as="geometry" />
        </mxCell>
        <mxCell id="cell" value="Mostrar datos Cell" style="rounded=1;whiteSpace=wrap;html=1;fillColor=#e6f7ff;" parent="1" vertex="1">
          <mxGeometry x="20" y="750" width="160" height="60" as="geometry" />
        </mxCell>
        <mxCell id="condTipo-cell" value="Cell" parent="1" source="condTipo" target="cell" edge="1">
          <mxGeometry relative="1" as="geometry" />
        </mxCell>
        <mxCell id="bp" value="Mostrar datos Battery Pack" style="rounded=1;whiteSpace=wrap;html=1;fillColor=#e6ffe6;" parent="1" vertex="1">
          <mxGeometry x="220" y="750" width="160" height="60" as="geometry" />
        </mxCell>
        <mxCell id="condTipo-bp" value="BP" parent="1" source="condTipo" target="bp" edge="1">
          <mxGeometry relative="1" as="geometry" />
        </mxCell>
        <mxCell id="bess" value="Mostrar datos BESS" style="rounded=1;whiteSpace=wrap;html=1;fillColor=#fff5e6;" parent="1" vertex="1">
          <mxGeometry x="460" y="750" width="160" height="60" as="geometry" />
        </mxCell>
        <mxCell id="condTipo-bess" value="BESS" parent="1" source="condTipo" target="bess" edge="1">
          <mxGeometry relative="1" as="geometry" />
        </mxCell>
        <mxCell id="genHtml" value="Generar HTML dinámico e interactividad" style="rounded=1;whiteSpace=wrap;html=1;" parent="1" vertex="1">
          <mxGeometry x="190" y="850" width="220" height="60" as="geometry" />
        </mxCell>
        <mxCell id="cell-genHtml" parent="1" source="cell" target="genHtml" edge="1" />
        <mxCell id="bp-genHtml" parent="1" source="bp" target="genHtml" edge="1" />
        <mxCell id="bess-genHtml" parent="1" source="bess" target="genHtml" edge="1" />
        <mxCell id="fin" value="Fin" style="ellipse;whiteSpace=wrap;html=1;" parent="1" vertex="1">
          <mxGeometry x="240" y="960" width="120" height="60" as="geometry" />
        </mxCell>
        <mxCell id="genHtml-fin" parent="1" source="genHtml" target="fin" edge="1" />
      </root>
    </mxGraphModel>
  </diagram>
</mxfile>
